<?xml version="1.0" standalone="no"?><!DOCTYPE svg PUBLIC "-//W3C//DTD SVG 1.1//EN" "http://www.w3.org/Graphics/SVG/1.1/DTD/svg11.dtd"><svg t="1667820904154" class="icon" viewBox="0 0 1024 1024" version="1.1" xmlns="http://www.w3.org/2000/svg" p-id="24778" xmlns:xlink="http://www.w3.org/1999/xlink" width="200" height="200"><path d="M512 898.612245c-198.530612 0-360.489796-161.959184-360.489796-360.489796s161.959184-360.489796 360.489796-360.489796 360.489796 161.959184 360.489796 360.489796-161.959184 360.489796-360.489796 360.489796z m0-679.183674c-175.542857 0-318.693878 143.15102-318.693878 318.693878s143.15102 318.693878 318.693878 318.693878 318.693878-143.15102 318.693878-318.693878-143.15102-318.693878-318.693878-318.693878z" p-id="24779"></path><path d="M872.489796 306.677551c-13.583673 0-27.167347-5.22449-37.093878-15.15102l-102.4-102.4a51.774694 51.774694 0 0 1-14.106122-47.542858c3.657143-16.718367 15.15102-30.82449 30.82449-37.616326 49.110204-19.853061 105.012245-8.881633 142.106122 28.734694 37.616327 37.616327 48.587755 92.995918 28.734694 142.106122-6.269388 15.673469-20.37551 27.167347-37.616326 30.82449-3.657143 0.522449-6.791837 1.044898-10.44898 1.044898zM798.82449 135.836735c-11.493878 0-22.987755 2.089796-33.959184 6.791836-4.179592 1.567347-5.22449 5.22449-5.746939 6.791837-0.522449 1.567347-0.522449 6.269388 3.134694 9.926531l102.4 102.4c3.657143 3.657143 7.836735 3.134694 9.926531 3.134694 2.089796-0.522449 5.22449-1.567347 6.791837-5.746939 13.583673-33.436735 5.746939-71.57551-19.330613-96.653061-17.240816-17.763265-39.706122-26.644898-63.216326-26.644898z" p-id="24780"></path><path d="M151.510204 306.677551c-3.657143 0-6.791837-0.522449-10.44898-1.044898-16.718367-3.657143-30.82449-15.15102-37.616326-30.82449-19.853061-49.110204-8.881633-105.012245 28.734694-142.106122 37.616327-37.616327 92.995918-48.587755 142.106122-28.734694 15.673469 6.269388 27.167347 20.37551 30.82449 37.616326 3.657143 17.240816-2.089796 35.004082-14.106122 47.542858L188.604082 291.004082c-9.926531 9.926531-22.987755 15.673469-37.093878 15.673469zM225.17551 135.836735c-22.987755 0-45.97551 8.881633-63.216326 26.122449-25.6 25.6-32.914286 63.738776-19.330613 96.653061 1.567347 4.179592 5.22449 5.22449 6.791837 5.746939 1.567347 0.522449 6.269388 0.522449 9.926531-3.134694l102.4-102.4c3.657143-3.657143 3.134694-7.836735 3.134694-9.926531-0.522449-2.089796-1.567347-5.22449-5.746939-6.791837-11.493878-4.179592-22.465306-6.269388-33.959184-6.269387z" p-id="24781"></path><path d="M514.612245 559.020408c-11.493878 0-20.897959-9.404082-20.897959-20.897959V303.020408c0-11.493878 9.404082-20.897959 20.897959-20.897959s20.897959 9.404082 20.897959 20.897959v235.102041c0 11.493878-9.404082 20.897959-20.897959 20.897959z" p-id="24782"></path><path d="M514.612245 559.020408h-182.857143c-11.493878 0-20.897959-9.404082-20.897959-20.897959s9.404082-20.897959 20.897959-20.897959h182.857143c11.493878 0 20.897959 9.404082 20.897959 20.897959s-9.404082 20.897959-20.897959 20.897959z" p-id="24783"></path><path d="M172.408163 898.612245c-5.22449 0-10.44898-2.089796-14.628571-6.269388-8.359184-8.359184-8.359184-21.420408 0-29.779592l94.040816-94.040816c8.359184-8.359184 21.420408-8.359184 29.779592 0 8.359184 8.359184 8.359184 21.420408 0 29.779592l-94.040816 94.040816c-4.702041 4.179592-9.926531 6.269388-15.151021 6.269388z" p-id="24784"></path><path d="M851.591837 898.612245c-5.22449 0-10.44898-2.089796-14.628572-6.269388l-94.040816-94.040816c-8.359184-8.359184-8.359184-21.420408 0-29.779592 8.359184-8.359184 21.420408-8.359184 29.779592 0l94.040816 94.040816c8.359184 8.359184 8.359184 21.420408 0 29.779592-4.702041 4.179592-9.926531 6.269388-15.15102 6.269388z" p-id="24785"></path></svg>