<?xml version="1.0" standalone="no"?><!DOCTYPE svg PUBLIC "-//W3C//DTD SVG 1.1//EN" "http://www.w3.org/Graphics/SVG/1.1/DTD/svg11.dtd"><svg t="1666972973187" class="icon" viewBox="0 0 1024 1024" version="1.1" xmlns="http://www.w3.org/2000/svg" p-id="1519" xmlns:xlink="http://www.w3.org/1999/xlink" width="200" height="200"><path d="M512 44c258.47 0 468 209.53 468 468S770.47 980 512 980 44 770.47 44 512 253.53 44 512 44z m0 40C275.622 84 84 275.622 84 512s191.622 428 428 428 428-191.622 428-428S748.378 84 512 84z m0 204c11.046 0 20 8.954 20 20l-0.001 184H716c11.046 0 20 8.954 20 20s-8.954 20-20 20H532v184c0 11.046-8.954 20-20 20s-20-8.954-20-20V532H308c-11.046 0-20-8.954-20-20s8.954-20 20-20h183.999L492 308c0-11.046 8.954-20 20-20z" fill="#222222" p-id="1520"></path></svg>