<?xml version="1.0" standalone="no"?><!DOCTYPE svg PUBLIC "-//W3C//DTD SVG 1.1//EN" "http://www.w3.org/Graphics/SVG/1.1/DTD/svg11.dtd"><svg t="1666975893048" class="icon" viewBox="0 0 1024 1024" version="1.1" xmlns="http://www.w3.org/2000/svg" p-id="1664" xmlns:xlink="http://www.w3.org/1999/xlink" width="200" height="200"><path d="M512 44c258.47 0 468 209.53 468 468S770.47 980 512 980 44 770.47 44 512 253.53 44 512 44z m0 40C275.622 84 84 275.622 84 512s191.622 428 428 428 428-191.622 428-428S748.378 84 512 84zM381.892 353.608L512 483.716l130.108-130.108c7.81-7.81 20.473-7.81 28.284 0 7.81 7.81 7.81 20.474 0 28.284L540.284 512l130.108 130.108c7.81 7.81 7.81 20.473 0 28.284-7.81 7.81-20.474 7.81-28.284 0L512 540.284 381.892 670.392c-7.81 7.81-20.473 7.81-28.284 0-7.81-7.81-7.81-20.474 0-28.284L483.716 512 353.608 381.892c-7.81-7.81-7.81-20.473 0-28.284 7.81-7.81 20.474-7.81 28.284 0z" fill="#222222" p-id="1665"></path></svg>